<svg aria-hidden="true" style="width:0;height:0;position:absolute;overflow:hidden" xmlns="http://www.w3.org/2000/svg"><defs><symbol id="icon-instagram" viewBox="0 0 32 32"><path d="M31.968 9.408c-.074-1.701-.349-2.869-.742-3.882a7.839 7.839 0 0 0-1.85-2.837l-.001-.001A7.906 7.906 0 0 0 26.597.861l-.054-.018C25.524.449 24.362.176 22.661.101 20.949.019 20.405 0 16.059 0c-4.344 0-4.888.019-6.595.094-1.699.074-2.869.349-3.88.742a7.847 7.847 0 0 0-2.839 1.85l-.001.001A7.9 7.9 0 0 0 .919 5.465l-.018.054C.506 6.538.232 7.7.157 9.401c-.082 1.712-.101 2.256-.101 6.602 0 4.344.019 4.888.094 6.595.075 1.701.35 2.869.744 3.882a7.915 7.915 0 0 0 1.849 2.837l.001.001c.8.813 1.77 1.443 2.832 1.843 1.019.395 2.182.67 3.882.744 1.707.075 2.251.094 6.595.094 4.346 0 4.89-.019 6.595-.094 1.701-.074 2.869-.349 3.882-.742a8.237 8.237 0 0 0 4.664-4.628l.019-.055c.394-1.019.669-2.182.744-3.882.075-1.707.093-2.251.093-6.595s-.006-4.888-.08-6.595zm-2.88 13.066c-.07 1.563-.333 2.406-.55 2.97a5.341 5.341 0 0 1-3.004 3.024l-.036.012c-.56.219-1.411.482-2.968.55-1.688.075-2.194.094-6.464.094-4.269 0-4.782-.019-6.464-.094-1.563-.069-2.406-.331-2.97-.55a4.953 4.953 0 0 1-1.836-1.192l-.001-.001a4.978 4.978 0 0 1-1.184-1.803L3.6 25.45c-.218-.563-.48-1.413-.549-2.97-.075-1.688-.094-2.195-.094-6.464 0-4.27.019-4.784.094-6.464.069-1.563.331-2.406.549-2.97a4.897 4.897 0 0 1 1.198-1.837l.002-.002a4.972 4.972 0 0 1 1.806-1.182l.034-.011c.56-.219 1.411-.48 2.968-.55 1.688-.074 2.195-.093 6.464-.093 4.275 0 4.782.019 6.464.093 1.563.069 2.406.331 2.97.55a4.91 4.91 0 0 1 1.837 1.194c.531.52.938 1.144 1.195 1.84.218.56.48 1.411.549 2.968.075 1.688.094 2.194.094 6.464 0 4.269-.019 4.768-.094 6.458z"/><path d="M16.059 7.782a8.223 8.223 0 0 0-8.219 8.221v.002a8.222 8.222 0 1 0 16.444 0 8.222 8.222 0 0 0-8.222-8.222h-.002zm0 13.552a5.333 5.333 0 0 1 .001-10.666h.001a5.334 5.334 0 1 1 0 10.668zM26.525 7.458a1.92 1.92 0 0 1-3.84 0 1.92 1.92 0 0 1 3.84 0z"/></symbol><symbol id="icon-facebook" viewBox="0 0 32 32"><path d="M21.328 5.312h2.923V.224A36.478 36.478 0 0 0 20.144 0h-.157.008c-4.213 0-7.099 2.65-7.099 7.52V12H8.25v5.688h4.646V32h5.699V17.69h4.459l.709-5.688h-5.17V8.08c0-1.643.443-2.768 2.734-2.768z"/></symbol><symbol id="icon-char" viewBox="0 0 32 32"><path d="m26.667 7.303-1.97-1.97-7.808 7.808-7.808-7.808-1.97 1.97 7.808 7.808-7.808 7.808 1.97 1.97 7.808-7.808 7.808 7.808 1.97-1.97-7.808-7.808 7.808-7.808z"/></symbol><symbol id="icon--" viewBox="0 0 32 32"><path d="M16 16c2.947 0 5.333-2.387 5.333-5.333S18.946 5.334 16 5.334c-2.947 0-5.333 2.387-5.333 5.333S13.054 16 16 16zm0 2.667c-3.56 0-10.667 1.787-10.667 5.333v1.333c0 .733.6 1.333 1.333 1.333h18.667c.733 0 1.333-.6 1.333-1.333V24c0-3.547-7.107-5.333-10.667-5.333z"/></symbol><symbol id="icon-icon-send" viewBox="0 0 32 32"><path d="M32 0 0 18l10.227 3.788L26 7 14.002 23.186l.01.004-.012-.004V32l5.735-6.691L27 28l5-28z"/></symbol><symbol id="icon-menu" viewBox="0 0 32 32"><path d="M6.4 11.733V9.6h19.2v2.133H6.4zm0 5.334h19.2v-2.133H6.4v2.133zm0 5.333h19.2v-2.133H6.4V22.4z"/></symbol><symbol id="icon-phone" viewBox="0 0 32 32"><path d="M22 20c-2 2-2 4-4 4s-4-2-6-4-4-4-4-6 2-2 4-4-4-8-6-8-6 6-6 6c0 4 4.109 12.109 8 16s12 8 16 8c0 0 6-4 6-6s-6-8-8-6z"/></symbol><symbol id="icon-location2" viewBox="0 0 32 32"><path d="M16 0C10.477 0 6 4.477 6 10c0 10 10 22 10 22s10-12 10-22c0-5.523-4.477-10-10-10zm0 16.125a6.125 6.125 0 1 1 0-12.25 6.125 6.125 0 0 1 0 12.25zM12.125 10a3.875 3.875 0 1 1 7.75 0 3.875 3.875 0 0 1-7.75 0z"/></symbol><symbol id="icon-map" viewBox="0 0 32 32"><path d="m0 6 10-4v24L0 30zM12 1l10 6v23l-10-5zM24 7l8-6v24l-8 6z"/></symbol><symbol id="icon-lock" viewBox="0 0 32 32"><path d="M18.5 14H18V8c0-3.308-2.692-6-6-6H8C4.692 2 2 4.692 2 8v6h-.5c-.825 0-1.5.675-1.5 1.5v15c0 .825.675 1.5 1.5 1.5h17c.825 0 1.5-.675 1.5-1.5v-15c0-.825-.675-1.5-1.5-1.5zM6 8c0-1.103.897-2 2-2h4c1.103 0 2 .897 2 2v6H6V8z"/></symbol><symbol id="icon-unlocked" viewBox="0 0 32 32"><path d="M24 2c3.308 0 6 2.692 6 6v6h-4V8c0-1.103-.897-2-2-2h-4c-1.103 0-2 .897-2 2v6h.5c.825 0 1.5.675 1.5 1.5v15c0 .825-.675 1.5-1.5 1.5h-17C.675 32 0 31.325 0 30.5v-15c0-.825.675-1.5 1.5-1.5H14V8c0-3.308 2.692-6 6-6h4z"/></symbol><symbol id="icon-eye" viewBox="0 0 32 32"><path d="M16 6C9.021 6 2.972 10.064 0 16c2.972 5.936 9.021 10 16 10s13.027-4.064 16-10c-2.972-5.936-9.021-10-16-10zm7.889 5.303A15.212 15.212 0 0 1 28.559 16a15.223 15.223 0 0 1-4.67 4.697C21.527 22.204 18.799 23 16 23s-5.527-.796-7.889-2.303A15.212 15.212 0 0 1 3.441 16a15.223 15.223 0 0 1 5.041-4.925 8 8 0 1 0 15.036 0c.124.074.248.15.371.228zM16 13a3 3 0 1 1-6 0 3 3 0 0 1 6 0z"/></symbol><symbol id="icon-history" viewBox="0 0 34 32"><path d="M20 2c7.732 0 14 6.268 14 14s-6.268 14-14 14v-3c2.938 0 5.701-1.144 7.778-3.222S31 18.938 31 16c0-2.938-1.144-5.701-3.222-7.778S22.938 5 20 5a10.925 10.925 0 0 0-7.778 3.222A10.922 10.922 0 0 0 9.181 14H15l-7 8-7-8h5.143C7.114 7.216 12.947 2 20 2zm6 12v4h-8V8h4v6z"/></symbol><symbol id="icon-clock" viewBox="0 0 32 32"><path d="M20.586 23.414 14 16.828V8h4v7.172l5.414 5.414zM16 0C7.163 0 0 7.163 0 16s7.163 16 16 16 16-7.163 16-16S24.837 0 16 0zm0 28C9.373 28 4 22.627 4 16S9.373 4 16 4s12 5.373 12 12-5.373 12-12 12z"/></symbol><symbol id="icon-clock2" viewBox="0 0 32 32"><path d="M16 0C7.163 0 0 7.163 0 16s7.163 16 16 16 16-7.163 16-16S24.837 0 16 0zm4.586 23.414L14 16.828V8h4v7.172l5.414 5.414-2.829 2.829z"/></symbol><symbol id="icon-mail" viewBox="0 0 32 32"><path d="M26.666 0H5.334C2.4 0 0 2.4 0 5.333v21.333C0 29.6 2.4 32 5.334 32h21.332C29.602 32 32 29.6 32 26.666V5.333C32 2.399 29.602 0 26.666 0zM8 8h16c.286 0 .563.061.817.177L16 18.463 7.183 8.176c.254-.116.531-.177.817-.177zM6 22V10c0-.042.002-.084.004-.125l5.864 6.842-5.8 5.8A1.983 1.983 0 0 1 5.999 22zm18 2H8c-.177 0-.35-.024-.517-.069l5.691-5.691L16 21.537l2.826-3.297 5.691 5.691c-.167.045-.34.069-.517.069zm2-2c0 .177-.024.35-.069.517l-5.8-5.8 5.864-6.842c.003.041.004.083.004.125v12z"/></symbol><symbol id="icon-mail3" viewBox="0 0 32 32"><path d="M26.667 0H5.334C2.4 0 0 2.4 0 5.334v21.332C0 29.602 2.4 32 5.334 32h21.333C29.601 32 32 29.602 32 26.666V5.334C32 2.4 29.601 0 26.667 0zM5.707 27.707l-2.414-2.414 8-8 .914.914-6.5 9.5zm-.914-21.5.914-.914L16 13.586l10.293-8.293.914.914L16 19.414 4.793 6.207zm21.5 21.5-6.5-9.5.914-.914 8 8-2.414 2.414z"/></symbol><symbol id="icon-arrow-up2" viewBox="0 0 32 32"><path d="m27.414 12.586-10-10a2 2 0 0 0-2.828 0l-10 10a2 2 0 1 0 2.828 2.828L14 8.828V28a2 2 0 1 0 4 0V8.828l6.586 6.586c.39.39.902.586 1.414.586s1.024-.195 1.414-.586a2 2 0 0 0 0-2.828z"/></symbol><symbol id="icon-time" viewBox="0 0 32 32"><path d="M22.031 7.205A10.573 10.573 0 0 0 16 5.337c-5.891 0-10.667 4.776-10.667 10.667S10.109 26.671 16 26.671s10.667-4.776 10.667-10.667V16c0-.452-.037-.896-.092-1.333H24a4 4 0 0 1-4-4c0-1.489.823-2.773 2.031-3.461zm-1.167 10.09a1.334 1.334 0 0 1-1.414 2.261l.006.003-4.161-2.589a1.332 1.332 0 0 1-.628-1.131V9.334a1.333 1.333 0 0 1 2.666 0v5.768l3.531 2.193zM32 4v5.333A2.667 2.667 0 0 1 29.333 12H24a1.333 1.333 0 0 1 0-2.666h3.515C25.13 5.217 20.795 2.678 16 2.678v-.011C8.648 2.667 2.667 8.648 2.667 16S8.648 29.333 16 29.333c.32 0 .637-.012.952-.033a1.32 1.32 0 0 1 1.424 1.231v.004a1.33 1.33 0 0 1-1.231 1.424h-.004c-.377.028-.757.041-1.141.041-8.823 0-16-7.177-16-16S7.177 0 16 0c.013 0 .024.007.037.008h.007c5.529 0 10.4 2.819 13.253 7.099l.037.058V4A1.333 1.333 0 0 1 32 4zm-6.951 23.62a1.333 1.333 0 0 1-.395 1.839l-.005.003c-.612.395-1.253.748-1.909 1.052a1.33 1.33 0 0 1-1.767-.64l-.003-.008a1.333 1.333 0 0 1 .64-1.767l.008-.003a13.146 13.146 0 0 0 1.588-.875 1.336 1.336 0 0 1 1.839.395l.003.005zM32 16c0 .727-.049 1.459-.145 2.173a1.334 1.334 0 1 1-2.642-.367l-.001.007c.081-.596.123-1.207.123-1.813a1.333 1.333 0 0 1 2.666 0zm-1.956 7.671a16.537 16.537 0 0 1-1.173 1.836 1.335 1.335 0 0 1-2.407-.792c0-.298.098-.574.264-.796l-.003.004c.361-.488.692-1.003.98-1.531a1.333 1.333 0 1 1 2.334 1.287l.003-.006z"/></symbol><symbol id="icon-quality" viewBox="0 0 32 32"><path d="m14.88 15.591-2.347-2.436-2.88 2.772 2.933 3.049c.563.595 1.352.97 2.229.987H14.867a3.144 3.144 0 0 0 2.216-.918l6.695-6.697-2.829-2.827z"/><path d="m15.896 32-.708-.316C14.676 31.452 2.667 26 2.667 16V7.367a4 4 0 0 1 2.708-3.786l.028-.008L16 .041l10.599 3.533a4 4 0 0 1 2.735 3.789v8.638c0 11.385-12.183 15.576-12.701 15.749zM16 4.256 6.667 7.367V16c0 6.227 7.125 10.463 9.436 11.671 2.323-.969 9.231-4.46 9.231-11.671V7.367z"/></symbol><symbol id="icon-customer-care" viewBox="0 0 32 32"><path d="m2.667 2.667-.001-.06a2.667 2.667 0 1 1 5.334 0l-.001.062v-.003a2.668 2.668 0 0 1-5.332.005v-.003zM8 12h8v-2a2 2 0 0 0-2-2h-4a2 2 0 0 0-2 2v2zm4-5.333.06.001a2.667 2.667 0 1 0 0-5.334l-.062.001h.003a2.668 2.668 0 0 0-.005 5.332h.003zm6.667-1.334.06.001a2.667 2.667 0 1 0 0-5.334l-.062.001h.003a2.668 2.668 0 0 0-.005 5.332h.003zM5.333 10c0-1.307.543-2.485 1.411-3.333H3.333a2 2 0 0 0-2 2v2h4V10zm11.923-3.333A4.637 4.637 0 0 1 18.667 10v.667h4v-2a2 2 0 0 0-2-2h-3.411zm13.725 10.686L17.932 32H4c-2.205 0-4-1.795-4-4v-9.333c0-2.205 1.795-4 4-4h13.143c1.514 0 2.84.803 3.575 2.007l.01.018 4.289-4.712a3.972 3.972 0 0 1 2.771-1.308h.009a3.95 3.95 0 0 1 2.894 1.045l-.003-.002a4.021 4.021 0 0 1 1.305 2.968 4.012 4.012 0 0 1-1.018 2.676l.004-.004zm-2.086-3.669a1.367 1.367 0 0 0-.973-.349h.003c-.371.016-.7.182-.931.438l-.001.001-5.903 6.485a4.226 4.226 0 0 1-3.329 2.742l-.023.003-6.881.983-.377-2.639 6.881-.983a1.531 1.531 0 0 0 1.307-1.508c0-.84-.684-1.523-1.524-1.523H4.001c-.736 0-1.333.599-1.333 1.333V28c0 .735.597 1.333 1.333 1.333h12.736L28.99 15.578c.212-.238.341-.553.341-.899 0-.394-.168-.748-.436-.995l-.001-.001z"/></symbol><symbol id="icon-delivery" viewBox="0 0 32 32"><path d="M13.333 5.333H0v-4h13.333v4zM10.667 8H0v4h10.667V8zM32 26.667h-4.069a3.333 3.333 0 1 1-6.524-.022l-.004.022H10.598a3.333 3.333 0 1 1-6.524-.022l-.004.022H.001v-12h8v4h-4v4h14.667V6a.667.667 0 0 0-.667-.667h-2v-4h2A4.672 4.672 0 0 1 22.668 6v.667h2c4.043 0 7.333 3.289 7.333 7.333v12.667zm-9.333-16v6.667H28v-3.333a3.337 3.337 0 0 0-3.333-3.333h-2z"/></symbol><symbol id="icon-viber-icon" viewBox="0 0 32 32"><path d="M15.078 0h2.047l.828.047 1.156.078.891.078.797.094 1.031.156.531.094.859.188.5.125.516.156.453.156.516.203.469.219.313.156.359.203.266.156.281.188.281.203.188.141.156.125.172.141.219.188.672.672.141.172.188.219.203.266.219.297.297.453.188.328.188.344.172.359.172.391.172.453.188.594.172.641.125.578.172.938.109.781.094.922.078 1.063.047.703v1.938l-.063 1.094-.094 1.125-.078.688-.094.656-.141.781-.156.734-.172.641-.188.594-.125.344-.156.375-.203.438-.219.406-.203.344-.359.531-.172.234-.172.219-.172.203-.156.172-.109.125-.172.188-.219.219-.125.109-.188.172-.172.141-.25.203-.297.219-.281.203-.375.234-.266.156-.516.266-.5.219-.484.188-.594.203-.438.125-.781.203-.844.188-.688.125-.891.141-.641.078-.703.063-.922.063-.734.031-.609.016h-.734l-.719-.016-.078.047-.234.188-.266.203-.219.172-.281.219-.219.172-.203.156-.219.172-.266.203-.219.172-.281.219-.406.313-.219.156-.281.203-.375.25-.203.125-.328.172-.328.125-.234.047h-.203l-.297-.078-.203-.109-.156-.141-.109-.156-.125-.25-.094-.359-.063-.406-.031-.359-.016-.297-.016-.672v-1.172l-.266-.063-.625-.172-.641-.203-.469-.172-.453-.188-.375-.172-.406-.203-.297-.172-.344-.219-.344-.234-.297-.219-.203-.172-.172-.141-.156-.141-.234-.219-.422-.422-.109-.125-.188-.219L3 24.304l-.188-.234-.25-.359-.25-.406-.203-.359-.219-.422-.172-.375-.172-.438-.188-.531-.141-.469-.141-.563-.156-.766-.125-.719-.078-.578-.109-1.047L.53 15.96l-.031-.469v-2.375l.094-1.359.063-.688.094-.797.109-.688L1 8.818l.156-.688.188-.656.188-.578.172-.438.219-.469.25-.484.234-.391.109-.172.25-.359.141-.188.172-.219.203-.234.156-.172.109-.125.156-.156.047-.063h.031l.031-.063h.031v-.031l.125-.109.172-.172.172-.141.172-.156.313-.234.297-.219.5-.313.391-.219.313-.172.609-.266.453-.172.547-.188.766-.203.75-.172.844-.156.813-.125.766-.094L12.94.127l1.438-.094zm.141 2.75-.969.031-1.063.063-.578.047-.984.109-.516.063-.766.125-.609.125-.813.203-.406.125-.484.172-.469.203-.391.203-.359.219-.438.313-.172.141-.219.188-.188.172-.094.078v.031H5.67v.031h-.031l-.109.125-.188.203-.141.172-.172.219-.203.281-.188.313-.156.266-.234.484-.156.406-.156.484-.141.5-.141.641-.125.719-.094.625-.078.656-.063.734-.047.859-.016.406v1.625l.031.734.047.75.078.797.094.719.094.594.109.578.141.594.172.578.141.391.172.406.125.266.203.359.172.281.188.266.172.219.141.172.141.156.109.125.328.328.125.109.219.188.266.203.375.25.375.219.453.234.391.156.563.188.563.172.656.172.469.109.828.172.25.063.188.094.078.063.109.156.063.156.016.078.016 1.609.063-.016.25-.203.469-.359.219-.172.281-.219.219-.172.281-.219.203-.156.266-.203.156-.109.125-.063.203-.031 1 .016h1.453l.813-.031.984-.063.844-.078.609-.078 1.031-.172.766-.172.734-.188.859-.281.391-.156.344-.156.297-.156.375-.219.391-.266.281-.219.219-.188.203-.188.313-.313.141-.172.188-.219.188-.25.219-.328.141-.234.156-.281.188-.406.172-.438.172-.563.141-.547.141-.672.125-.75.078-.578.078-.75.063-.859.031-.641.016-.734v-.453l-.016-.813-.047-.891-.063-.781-.094-.844-.109-.734-.125-.688-.125-.547-.172-.609-.141-.422-.156-.375-.188-.391-.156-.281-.188-.297-.203-.297-.156-.203-.203-.234-.188-.203-.359-.359-.125-.109-.219-.188-.266-.203-.156-.109-.234-.156-.328-.188-.359-.188-.313-.141-.563-.203-.406-.125-.5-.125-.859-.188-.563-.094-1-.141-.672-.078-.75-.063-1.031-.063-.766-.031z"/><path d="M9.109 7.453h.344l.25.063.25.125.25.172.203.172.219.219.141.172.156.188.219.313.172.266.219.359.156.266.219.391.141.25.234.422.109.25.047.172.016.109v.328l-.047.219-.078.203-.125.203-.141.156-.219.172-.203.172-.172.141-.328.328-.141.219-.063.156-.016.078v.203l.078.234.125.219.203.297.219.281.172.219.172.203.141.156.141.172.141.141.109.125.25.266.641.641.125.109.281.281.125.109.203.188.188.172.172.156.172.141.156.141.172.141.25.203.172.141.313.234.313.219.281.172.219.109h.266l.219-.109.156-.125.141-.156.172-.219.188-.266.219-.297.109-.125.234-.156.188-.078.141-.031.141-.016h.266l.219.031.188.063.328.172.25.156.281.172.328.219.344.234.219.156.328.25.25.188.172.141.203.172.219.172.156.141.125.109.125.141.109.172.078.219.016.063v.375l-.078.281-.125.25-.141.234-.188.25-.125.156-.172.188-.297.297-.125.109-.203.172-.25.172-.281.172-.297.156-.25.094-.375.094-.156.016h-.172l-.297-.047-.516-.156-.516-.172-.328-.125-.563-.234-.5-.219-.391-.188-.438-.219-.344-.188-.422-.234-.313-.188-.375-.234-.672-.453-.359-.25-.297-.219-.203-.141-.25-.203-.172-.141-.203-.172-.172-.141-.234-.203-.156-.141-.266-.25-.156-.156-.125-.109-.453-.453-.109-.125-.25-.266-.109-.125-.188-.219-.172-.203-.172-.219-.156-.188-.156-.203-.188-.25-.203-.281-.406-.609-.141-.219-.234-.375-.234-.422-.203-.375-.234-.453-.203-.422-.203-.469-.234-.563-.203-.563-.188-.563-.141-.453-.094-.359-.031-.188v-.141l.047-.313.094-.313.125-.281.125-.234.156-.234.188-.25.172-.203.313-.313.266-.203.219-.156.297-.172.297-.125.281-.063zm8.079-2.734h.641l.625.047.578.078.469.094.484.125.359.109.484.188.328.141.344.172.359.203.297.188.281.203.172.125.156.125.203.172.188.172.375.375.141.172.188.219.141.188.203.281.234.391.25.453.203.438.172.453.141.438.125.469.109.563.063.453.047.484.016.313v.531l-.063.281-.078.188-.125.188-.188.203-.188.141-.188.094-.25.078-.172.031h-.25l-.297-.063-.297-.141-.141-.109-.141-.125-.141-.188-.125-.234-.063-.219-.031-.297-.047-.734-.063-.469-.094-.438-.141-.484-.156-.391-.188-.391-.156-.266-.203-.297-.172-.219-.172-.188-.094-.109-.125-.109-.156-.141-.219-.172-.203-.141-.328-.203-.344-.172-.297-.125-.563-.188-.438-.094-.5-.078-.391-.031-.578-.016-.281-.063-.297-.141-.156-.125-.188-.188-.125-.203-.063-.125-.063-.188-.031-.172v-.375l.063-.25.063-.141.094-.172.141-.172.141-.141.219-.141.188-.078.172-.047z"/><path d="M17.281 8.813h.344l.359.047.344.078.422.141.391.188.219.125.281.188.219.172.203.172.188.172.188.203.172.219.203.281.219.375.172.375.125.375.094.438.047.438v.219l-.047.266-.094.25-.125.188-.141.172-.172.141-.219.125-.219.078-.234.047h-.266l-.281-.063-.281-.125-.188-.141-.172-.172-.156-.234-.094-.25-.047-.219-.031-.328-.078-.25-.141-.25-.172-.203-.188-.172-.234-.156-.219-.109-.188-.047-.344-.016-.234-.063-.266-.125-.141-.109-.156-.141-.141-.188-.125-.25-.063-.234-.016-.078v-.391l.063-.25.125-.25.109-.156.141-.156.156-.125.25-.125.203-.063z"/></symbol><path id="icon-moon" d="M9.528 1.718a.75.75 0 0 1 .162.819A8.97 8.97 0 0 0 9 6a9 9 0 0 0 9 9 8.97 8.97 0 0 0 3.463-.69.75.75 0 0 1 .981.98 10.503 10.503 0 0 1-9.694 6.46c-5.799 0-10.5-4.701-10.5-10.5 0-4.368 2.667-8.112 6.46-9.694a.75.75 0 0 1 .818.162z"/><path id="icon-sun" d="M12 2.25a.75.75 0 0 1 .75.75v2.25a.75.75 0 0 1-1.5 0V3a.75.75 0 0 1 .75-.75zM7.5 12a4.5 4.5 0 1 1 9 0 4.5 4.5 0 0 1-9 0zm11.394-5.834a.75.75 0 0 0-1.06-1.06l-1.591 1.59a.75.75 0 1 0 1.06 1.061l1.591-1.59zM21.75 12a.75.75 0 0 1-.75.75h-2.25a.75.75 0 0 1 0-1.5H21a.75.75 0 0 1 .75.75zm-3.916 6.894a.75.75 0 0 0 1.06-1.06l-1.59-1.591a.75.75 0 1 0-1.061 1.06l1.59 1.591zM12 18a.75.75 0 0 1 .75.75V21a.75.75 0 0 1-1.5 0v-2.25A.75.75 0 0 1 12 18zm-4.242-.697a.75.75 0 0 0-1.061-1.06l-1.591 1.59a.75.75 0 0 0 1.06 1.061l1.591-1.59zM6 12a.75.75 0 0 1-.75.75H3a.75.75 0 0 1 0-1.5h2.25A.75.75 0 0 1 6 12zm.697-4.243a.75.75 0 0 0 1.06-1.06l-1.59-1.591a.75.75 0 0 0-1.061 1.06l1.59 1.591z"/></defs></svg>